<?xml version="1.0" encoding="UTF-8" standalone="no"?>
<svg
   xmlns:dc="http://purl.org/dc/elements/1.1/"
   xmlns:cc="http://creativecommons.org/ns#"
   xmlns:rdf="http://www.w3.org/1999/02/22-rdf-syntax-ns#"
   xmlns:svg="http://www.w3.org/2000/svg"
   xmlns="http://www.w3.org/2000/svg"
   xmlns:sodipodi="http://sodipodi.sourceforge.net/DTD/sodipodi-0.dtd"
   xmlns:inkscape="http://www.inkscape.org/namespaces/inkscape"
   height="1024"
   width="768"
   version="1.1"
   id="svg4"
   sodipodi:docname="TextFileError.svg"
   inkscape:version="0.92.4 (5da689c313, 2019-01-14)">
  <metadata
     id="metadata10">
    <rdf:RDF>
      <cc:Work
         rdf:about="">
        <dc:format>image/svg+xml</dc:format>
        <dc:type
           rdf:resource="http://purl.org/dc/dcmitype/StillImage" />
        <dc:title></dc:title>
      </cc:Work>
    </rdf:RDF>
  </metadata>
  <defs
     id="defs8" />
  <sodipodi:namedview
     pagecolor="#ffffff"
     bordercolor="#666666"
     borderopacity="1"
     objecttolerance="10"
     gridtolerance="10"
     guidetolerance="10"
     inkscape:pageopacity="0"
     inkscape:pageshadow="2"
     inkscape:window-width="3840"
     inkscape:window-height="2035"
     id="namedview6"
     showgrid="false"
     inkscape:zoom="0.921875"
     inkscape:cx="1156.6118"
     inkscape:cy="153.33179"
     inkscape:window-x="-13"
     inkscape:window-y="-13"
     inkscape:window-maximized="1"
     inkscape:current-layer="svg4" />
  <path
     d="M448 256H128v64h320V256zM576 64H0v896h768V256L576 64zM704 896H64V128h448l192 192V896zM128 768h512v-64H128V768zM128 640h512v-64H128V640zM128 512h512v-64H128V512z"
     id="path2" />
  <g
     style="overflow:visible"
     id="g6"
     transform="matrix(15.625,0,0,15.625,264.94913,455.38982)">
    <g
       id="Error_1_">
      <g
         id="Error">
        <circle
           cx="16"
           cy="16"
           id="BG"
           r="16"
           style="fill:#ff0000" />
        <path
           inkscape:connector-curvature="0"
           d="m 14.5,25 h 3 v -3 h -3 z m 0,-19 v 13 h 3 V 6 Z"
           id="Exclamatory_x5F_Sign"
           style="fill:#e6e6e6" />
      </g>
    </g>
  </g>
</svg>
